<svg xmlns="http://www.w3.org/2000/svg" width="43" height="44" fill="none"><rect width="42.193" height="42.193" y=".904" fill="#7B61FF" rx="12"/><path fill="#fff" d="M14.585 15.639a1.692 1.692 0 0 0-2.377.214l-4.22 5.064a1.684 1.684 0 0 0 0 2.163l4.22 5.064a1.687 1.687 0 1 0 2.59-2.163l-3.319-3.983 3.32-3.982a1.688 1.688 0 0 0-.214-2.377zm8.532-3.736a1.704 1.704 0 0 0-1.985 1.326l-3.376 16.88a1.683 1.683 0 0 0 1.326 1.984 1.687 1.687 0 0 0 1.985-1.325l3.375-16.88a1.685 1.685 0 0 0-1.325-1.985zm11.093 9.014-4.22-5.064a1.686 1.686 0 1 0-2.59 2.163l3.32 3.983-3.32 3.982a1.687 1.687 0 1 0 2.59 2.163l4.22-5.064a1.684 1.684 0 0 0 0-2.163z"/></svg>