<svg xmlns="http://www.w3.org/2000/svg" width="45" height="45" fill="none"><rect width="45" height="45" fill="#fff" rx="22.5"/><g fill="#000" clip-path="url(#a)"><path d="M5.16 19a3.212 3.212 0 0 1 1.545 6.029 3.212 3.212 0 0 0-3.033-4.271h-.127c-.56 0-1.087.143-1.545.395A3.213 3.213 0 0 1 5.033 19h.127zm5.369 2.056c0 .735.426 1.2 1.24 1.378l.761.17c.394.086.558.276.558.598 0 .4-.355.643-.912.643-.538 0-.867-.243-.873-.65h-.84c.02.86.69 1.404 1.713 1.404 1.056 0 1.752-.577 1.752-1.47 0-.715-.4-1.135-1.22-1.312l-.755-.164c-.4-.092-.584-.282-.584-.623 0-.4.334-.65.853-.65.472 0 .767.243.787.657h.84c-.026-.867-.643-1.405-1.614-1.405-1.01 0-1.706.584-1.706 1.424zm5.293 3.544c.847 0 1.438-.427 1.575-1.136h-.741c-.092.308-.38.479-.82.479-.532 0-.834-.289-.893-.86l2.441-.006v-.243c0-1.01-.617-1.66-1.588-1.66-.951 0-1.614.702-1.614 1.72 0 1.003.676 1.705 1.64 1.705zm-.02-2.77c.48 0 .788.296.788.742h-1.627c.079-.486.367-.742.84-.742zm1.842.991c0 .938.604 1.627 1.523 1.627.465 0 .866-.19 1.07-.492v.538c0 .538-.355.886-.906.886-.492 0-.814-.25-.866-.67h-.801c.098.867.735 1.398 1.667 1.398 1.05 0 1.699-.675 1.699-1.758v-3.077h-.742l-.045.446c-.19-.348-.571-.551-1.057-.551-.925 0-1.542.708-1.542 1.653zm.807-.02c0-.53.341-.931.873-.931.558 0 .892.38.892.931 0 .565-.34.952-.892.952-.525 0-.873-.407-.873-.951zm4.011 1.713v-1.837c0-.525.308-.775.69-.775.38 0 .622.243.622.696v1.916h.8v-1.837c0-.532.296-.781.683-.781.38 0 .63.243.63.709v1.909h.794v-2.12c0-.747-.433-1.22-1.22-1.22-.492 0-.873.243-1.037.617-.17-.374-.512-.617-1.004-.617-.466 0-.794.21-.958.48l-.066-.381h-.734v3.24h.8zm6.258.086c.847 0 1.437-.427 1.575-1.136h-.742c-.091.308-.38.479-.82.479-.531 0-.833-.289-.892-.86l2.44-.006v-.243c0-1.01-.616-1.66-1.587-1.66-.951 0-1.614.702-1.614 1.72 0 1.003.676 1.705 1.64 1.705zm-.02-2.77c.48 0 .788.296.788.742H27.86c.078-.486.367-.742.84-.742zm2.826 2.684v-1.745c0-.525.302-.867.794-.867.413 0 .682.263.682.807v1.805h.8v-1.995c0-.84-.419-1.345-1.233-1.345-.44 0-.833.19-1.036.518l-.066-.42h-.741v3.242h.8zm3.969 0v-2.572h.63v-.67h-.63v-1.01h-.8v1.01h-.624v.67h.623v2.572h.8zm1.016-1.752c0 1.129.735 1.83 1.896 1.83 1.168 0 1.903-.708 1.903-1.83v-3.044h-.84v2.992c0 .682-.38 1.07-1.063 1.07-.682 0-1.056-.382-1.056-1.07v-2.992h-.84v3.044zm5.475-3.044h-.84v4.796h.84v-4.796z"/></g><defs><clipPath id="a"><path fill="#fff" d="M2 19h40v7.123H2z"/></clipPath></defs></svg>